<?xml version="1.0" encoding="UTF-8"?>
<svg width="72px" height="72px" viewBox="0 0 72 72" version="1.1" xmlns="http://www.w3.org/2000/svg" xmlns:xlink="http://www.w3.org/1999/xlink">
    <!-- Generator: Sketch 61.2 (89653) - https://sketch.com -->
    <title>ic-android</title>
    <desc>Created with Sketch.</desc>
    <g id="Page-2" stroke="none" stroke-width="1" fill="none" fill-rule="evenodd">
        <g id="Portfolio-Template-1" transform="translate(-312.000000, -1500.000000)">
            <g id="What-I-Do" transform="translate(199.000000, 1461.000000)">
                <g id="ic-android" transform="translate(113.000000, 39.000000)">
                    <circle id="Oval-Copy" fill="#A0C637" cx="36" cy="36" r="36"></circle>
                    <g id="android" transform="translate(24.000000, 20.000000)" fill="#FFFFFF" fill-rule="nonzero">
                        <path d="M4,24 C4,24.552 4.448,25 5,25 L7,25 L7,29.5 C7,30.328 7.672,31 8.5,31 C9.328,31 10,30.328 10,29.5 L10,25 L14,25 L14,29.5 C14,30.328 14.672,31 15.5,31 C16.328,31 17,30.328 17,29.5 L17,25 L19,25 C19.552,25 20,24.552 20,24 L20,11 L4,11 L4,24 Z" id="Path"></path>
                        <path d="M1.5,11 C0.672,11 0,11.672 0,12.5 L0,19.5 C0,20.328 0.672,21 1.5,21 C2.328,21 3,20.328 3,19.5 L3,12.5 C3,11.672 2.328,11 1.5,11 Z" id="Path"></path>
                        <path d="M22.5,11 C21.672,11 21,11.672 21,12.5 L21,19.5 C21,20.328 21.672,21 22.5,21 C23.328,21 24,20.328 24,19.5 L24,12.5 C24,11.672 23.328,11 22.5,11 Z" id="Path"></path>
                        <path d="M16.153,3.172 L17.416,1.277 C17.569,1.048 17.507,0.737 17.277,0.584 C17.046,0.431 16.735,0.493 16.584,0.723 L15.265,2.702 C14.267,2.254 13.164,2 12,2 C10.836,2 9.733,2.254 8.735,2.701 L7.416,0.722 C7.263,0.493 6.953,0.43 6.723,0.583 C6.493,0.736 6.431,1.047 6.584,1.276 L7.847,3.171 C5.543,4.576 4,7.105 4,10 L20,10 C20,7.105 18.457,4.576 16.153,3.172 Z M9,7 C8.448,7 8,6.552 8,6 C8,5.448 8.448,5 9,5 C9.552,5 10,5.448 10,6 C10,6.552 9.552,7 9,7 Z M15,7 C14.448,7 14,6.552 14,6 C14,5.448 14.448,5 15,5 C15.552,5 16,5.448 16,6 C16,6.552 15.552,7 15,7 Z" id="Shape"></path>
                    </g>
                </g>
            </g>
        </g>
    </g>
</svg>