<?xml version="1.0" encoding="UTF-8"?>
<svg width="72px" height="72px" viewBox="0 0 72 72" version="1.1" xmlns="http://www.w3.org/2000/svg" xmlns:xlink="http://www.w3.org/1999/xlink">
    <!-- Generator: Sketch 61.2 (89653) - https://sketch.com -->
    <title>ic-apple</title>
    <desc>Created with Sketch.</desc>
    <g id="Page-2" stroke="none" stroke-width="1" fill="none" fill-rule="evenodd">
        <g id="Portfolio-Template-1" transform="translate(-417.000000, -1500.000000)">
            <g id="What-I-Do" transform="translate(199.000000, 1461.000000)">
                <g id="ic-apple" transform="translate(218.000000, 39.000000)">
                    <circle id="Oval-Copy" fill="#313131" cx="36" cy="36" r="36"></circle>
                    <g id="apple" transform="translate(23.000000, 20.000000)" fill="#FFFFFF" fill-rule="nonzero">
                        <path d="M25.893,24.01 C25.188,25.572 24.851,26.268 23.943,27.648 C22.678,29.575 20.893,31.975 18.681,31.995 C16.716,32.013 16.211,30.717 13.544,30.732 C10.877,30.747 10.321,32.019 8.356,32.0002107 C6.144,31.98 4.454,29.813 3.188,27.885 C-0.352,22.497 -0.722,16.173 1.461,12.812 C3.013,10.422 5.461,9.025 7.763,9.025 C10.106,9.025 11.58,10.31 13.518,10.31 C15.398,10.31 16.543,9.023 19.253,9.023 C21.301,9.023 23.471,10.138 25.018,12.065 C19.952,14.842 20.775,22.075 25.893,24.01 L25.893,24.01 Z" id="Path"></path>
                        <path d="M17.484,5.651 C18.469,4.388 19.216,2.604 18.944,0.781 C17.336,0.891 15.456,1.914 14.357,3.248 C13.36,4.458 12.537,6.253 12.857,7.998 C14.612,8.053 16.429,7.005 17.484,5.651 L17.484,5.651 Z" id="Path"></path>
                    </g>
                </g>
            </g>
        </g>
    </g>
</svg>